<?xml version="1.0" encoding="UTF-8" standalone="no"?>
<!-- Created with Inkscape (http://www.inkscape.org/) -->

<svg
   width="256mm"
   height="60mm"
   viewBox="0 0 967.55993 226.7715"
   version="1.1"
   id="svg1"
   xml:space="preserve"
   xmlns="http://www.w3.org/2000/svg"
   xmlns:svg="http://www.w3.org/2000/svg"><defs
     id="defs1" /><g
     id="layer1"><g
       id="g13"
       transform="translate(-40.002484,3.657593)"><path
         style="fill:#ffffff;fill-opacity:1;stroke:#000000;stroke-width:0;stroke-linecap:butt;stroke-linejoin:miter;stroke-miterlimit:1;stroke-dasharray:none;stroke-opacity:1;paint-order:markers stroke fill"
         d="m 92.959832,30.592021 h 27.374848 l 61.3809,126.162379 60.19068,-126.502439 26.5247,0.85015 V 192.63077 h -27.37485 l 0.34006,-98.957559 -46.24821,98.787529 -25.50452,0.17003 -48.79867,-101.508009 0.17003,101.337979 -27.714908,0.17003 z"
         id="path4" /><path
         id="path5"
         style="fill:#ffffff;fill-opacity:1;stroke:#000000;stroke-width:0;stroke-linecap:butt;stroke-linejoin:miter;stroke-miterlimit:1;stroke-dasharray:none;stroke-opacity:1;paint-order:markers stroke fill"
         d="m 352.0419,25.743641 -64.58763,166.130879 28.81791,0.50824 7.79888,-18.98606 55.60285,-0.33882 8.30713,19.32488 h 27.97084 z m 0,68.65551 20.00448,56.451859 -40.3478,-0.34077 z" /><path
         style="fill:#ffffff;fill-opacity:1;stroke:#000000;stroke-width:0;stroke-linecap:butt;stroke-linejoin:miter;stroke-miterlimit:1;stroke-dasharray:none;stroke-opacity:1;paint-order:markers stroke fill"
         d="m 434.59923,30.828551 27.1235,0.16952 -0.50856,81.709589 66.79166,-82.048629 33.73487,0.33904 -66.62214,82.387679 67.46975,78.65819 -36.27771,0.67809 -49.66993,-61.53648 -15.93507,17.12172 1.86474,44.07572 -27.80159,0.16952 z"
         id="path6" /><path
         style="fill:#ffffff;fill-opacity:1;stroke:#000000;stroke-width:0;stroke-linecap:butt;stroke-linejoin:miter;stroke-miterlimit:1;stroke-dasharray:none;stroke-opacity:1;paint-order:markers stroke fill"
         d="m 583.43951,30.319981 107.47693,0.33905 0.16952,27.12351 -80.52293,0.16953 -0.33905,40.68527 h 67.13071 v 26.275899 h -66.96118 v 40.34623 h 80.52293 v 27.46256 H 583.60903 Z"
         id="path7" /><path
         id="path11"
         style="fill:#ffffff;fill-opacity:1;stroke:#000000;stroke-width:0;stroke-linecap:butt;stroke-linejoin:miter;stroke-miterlimit:1;stroke-dasharray:none;stroke-opacity:1;paint-order:markers stroke fill"
         d="m 779.0684,30.489171 -59.33385,0.16943 v 27.46259 l 25.59904,40.68662 h -26.10728 v 93.405529 l 27.4626,0.50825 v -68.14728 h 14.2405 l 43.22785,67.80845 h 32.03871 l -44.41373,-71.36809 c 10.61908,-0.0388 22.98008,-10.35821 30.10506,-22.043279 5.84386,-9.58402 5.32677,-28.2367 0.71466,-38.75102 -3.677,-8.38254 -8.2293,-13.5238 -14.18989,-17.82158 -6.23231,-4.4937 -14.11474,-10.0688 -29.34367,-11.90962 z m -27.80142,27.12377 h 29.49556 c 10.67457,5.14496 18.25898,10.83271 19.29956,20.33553 0.91559,8.36141 -8.79783,17.03062 -22.68979,20.51857 z" /><path
         style="fill:#ffffff;fill-opacity:1;stroke:#000000;stroke-width:0;stroke-linecap:butt;stroke-linejoin:miter;stroke-miterlimit:1;stroke-dasharray:none;stroke-opacity:1;paint-order:markers stroke fill"
         d="m 927.87406,74.346311 26.73098,0.11987 c -1.6536,-25.09746 -15.23887,-40.08122 -40.75578,-44.95129 0,0 -15.80409,-1.72264 -23.36747,0.13974 -5.59503,1.3777 -10.65183,4.60961 -15.35776,7.93475 -4.37431,3.09082 -8.4746,6.73149 -11.71993,10.99243 -2.81612,3.69741 -6.49315,12.35806 -6.49315,12.33905 0,0 -2.3389,7.57232 -2.7171,11.48961 -0.40637,4.20919 -0.35409,8.53545 0.50382,12.67627 1.48507,7.1678 3.93121,14.34383 7.9179,20.482989 2.02473,3.1179 4.87977,5.69276 7.86754,7.90502 3.31655,2.4557 7.15322,4.15565 10.94127,5.79289 3.07574,1.32937 9.51307,3.24778 9.51307,3.24778 20.07825,1.31857 24.90714,4.53294 24.90714,4.53294 14.47431,8.72054 12.11937,22.45653 12.11937,22.45653 -5.36418,20.28802 -28.25938,17.56097 -28.25938,17.56097 0,0 -6.71273,-0.41954 -12.58637,-5.6339 -5.69383,-8.93032 -6.29317,-13.78506 -6.29317,-13.78506 l -26.91085,-0.1798 c 0,0 -0.23486,10.117 3.36125,18.26816 2.27753,8.99026 12.82122,16.97365 12.82122,16.97365 0,0 7.96711,6.42265 16.89743,8.93993 5.08899,1.55905 12.39863,2.14565 18.64407,2.05478 6.83986,-0.0995 10.76613,0.21963 15.82286,-1.34516 6.99385,-2.16422 13.72227,-5.86842 19.11014,-10.82509 3.6027,-3.31437 6.14686,-7.7239 8.27674,-12.13164 2.69424,-5.57566 5.23904,-11.55297 5.51744,-17.73918 0.4742,-10.53195 -0.2131,-21.61058 -6.64158,-30.92265 -5.53773,-8.01261 -12.05441,-13.88753 -22.12723,-18.10424 -8.13705,-4.492329 -22.61362,-2.666379 -31.17448,-6.014449 -11.0613,-5.80612 -12.95954,-14.19519 -12.95954,-14.19519 -2.7893,-11.8015 2.33244,-20.60811 15.36519,-26.41984 21.27613,-2.85098 28.53468,5.7975 31.04636,18.34013 z"
         id="path13" /></g></g></svg>
